# xmcd
#
# Track frame offsets:
#	150
#	10966
#	21485
#	33424
#	46382
#	57235
#	67649
#	78253
#	88907
#	100306
#	112404
#	122642
#	133302
#	146413
#	158371
#	170737
#	184617
#	197274
#	208525
#	220164
#	231772
#	243611
#	256302
#	265782
#
# Disc length: 3694 seconds
#
# Revision: 0
# Processed by: cddbd v1.5.2PL0 Copyright (c) Steve Scherf et al.
# Submitted via: audiograbber 1.83.01
#
DISCID=520e6c18
DTITLE=Tom Anderson - Al Rogers - Two Short Lived Hillbilly Careers
DYEAR=1900
DGENRE=Country
TTITLE0=Tom Anderson - My Worried, Troubled Mind
TTITLE1=Tom Anderson - The Moon And I
TTITLE2=Tom Anderson - A Million Tears
TTITLE3=Tom Anderson - As The Hands Go 'Round The Clock
TTITLE4=Tom Anderson - Night Time
TTITLE5=Tom Anderson - Love Goes On Like A Ball Game
TTITLE6=Tom Anderson - Sweet Love
TTITLE7=Tom Anderson - My Heart's In A Whirl
TTITLE8=Tom Anderson - Everybody's Beau
TTITLE9=Tom Anderson - If Your Heart Had A Window
TTITLE10=Tom Anderson - No More Blues From You
TTITLE11=Tom Anderson - My Heart Couldn't See
TTITLE12=Al Rogers - Shuffle-Boogie Bellhop
TTITLE13=Al Rogers - It Wouldn't Be The Same 
TTITLE14=Al Rogers - Deep Water
TTITLE15=Al Rogers - Gee But It's Lonesome Out Tonight
TTITLE16=Al Rogers - Never To Be Forgotten
TTITLE17=Al Rogers - I'm Gettin' Nowhere Fast
TTITLE18=Al Rogers - All The Time
TTITLE19=Al Rogers - Honky Tonk Heaven
TTITLE20=Al Rogers - All Alone, All Alone
TTITLE21=Al Rogers - Too Blue To Care
TTITLE22=Al Rogers - I Ain't Spoken Fer
TTITLE23=Al Rogers - Workin' Man's Blues
EXTD=
EXTT0=
EXTT1=
EXTT2=
EXTT3=
EXTT4=
EXTT5=
EXTT6=
EXTT7=
EXTT8=
EXTT9=
EXTT10=
EXTT11=
EXTT12=
EXTT13=
EXTT14=
EXTT15=
EXTT16=
EXTT17=
EXTT18=
EXTT19=
EXTT20=
EXTT21=
EXTT22=
EXTT23=
PLAYORDER=
